<svg width="43" height="39" viewBox="0 0 43 39" fill="none" xmlns="http://www.w3.org/2000/svg">
<path d="M21.5 0.961548L0 13.806V33.4648C0 36.3609 2.35634 38.7172 5.25236 38.7172H37.7476C40.6437 38.7172 43 36.3609 43 33.4648V13.806L21.5 0.961548ZM37.4752 14.4965L21.709 24.3273L21.6274 24.3713C21.6142 24.3781 21.6017 24.3844 21.584 24.3913L21.5651 24.3958C21.5206 24.4067 21.5 24.4073 21.4994 24.4073C21.4994 24.4073 21.4783 24.4067 21.4229 24.3936L21.4132 24.3913C21.3989 24.3856 21.3835 24.3781 21.3629 24.3679C21.3407 24.3553 21.3178 24.3427 21.295 24.3307L5.52534 14.4965L21.5 4.95293L37.4752 14.4965ZM37.7476 35.2912H5.25236C4.24552 35.2912 3.42657 34.4722 3.42657 33.466V17.2258L19.5252 27.2639C19.584 27.301 19.6434 27.3341 19.7056 27.3661C19.7393 27.3844 19.7724 27.4021 19.8038 27.4175C20.054 27.5466 20.3087 27.6448 20.5491 27.7076L20.6816 27.739C20.9592 27.8019 21.2339 27.8338 21.5017 27.8338C21.7678 27.8338 22.0443 27.8013 22.3235 27.7373L22.4377 27.7111C22.6907 27.6454 22.946 27.5466 23.191 27.4198C23.2264 27.4021 23.2613 27.3838 23.2978 27.3638L39.5734 17.224V33.4648C39.5734 34.4722 38.7545 35.2912 37.7476 35.2912Z" fill="white"/>
</svg>
