<svg width="44" height="43" viewBox="0 0 44 43" fill="none" xmlns="http://www.w3.org/2000/svg">
<g clip-path="url(#clip0_47_37)">
<path d="M34.1196 27.6664C32.3407 25.928 29.4616 25.9278 27.6827 27.6664C26.4566 28.8646 25.7666 29.7971 24.1612 29.7971C23.2963 29.7971 22.4834 29.468 21.8717 28.8704L14.4581 21.6252C13.8465 21.0276 13.5098 20.2329 13.5098 19.3878C13.5098 17.8089 14.4914 17.1179 15.69 15.9466C17.4689 14.2083 17.4692 11.3944 15.69 9.65581L12.9568 6.98476C11.1821 5.25032 8.29445 5.2504 6.51975 6.98476C1.36959 12.0179 1.64038 11.7086 1.46928 12.0349C-1.16763 17.0614 -0.193356 23.1221 3.89367 27.1163L16.2532 39.1947C20.3406 43.1893 26.5422 44.1408 31.6851 41.564C32.0185 41.3971 31.7016 41.6625 36.8527 36.6283C38.6317 34.89 38.6319 32.0761 36.8528 30.3375L34.1196 27.6664ZM34.4224 34.2531L29.8846 38.6878C26.1209 40.455 21.65 39.719 18.6833 36.8197L6.32381 24.741C3.35699 21.8417 2.60409 17.4724 4.41213 13.7943L8.94998 9.35959C9.38474 8.93497 10.0921 8.93497 10.5266 9.35959L13.2598 12.0305C13.6953 12.4561 13.6955 13.1454 13.2598 13.5712C11.9394 14.8617 10.0728 16.3278 10.0728 19.3876C10.0728 21.1299 10.7672 22.7679 12.0278 23.9999L19.4415 31.2451C20.7021 32.4772 22.3783 33.1557 24.1613 33.1557C27.2792 33.1557 28.7749 31.3487 30.1129 30.0412C30.5487 29.6153 31.2536 29.6154 31.6894 30.0412L34.4226 32.7121C34.8581 33.138 34.8582 33.8273 34.4224 34.2531Z" fill="white"/>
<path d="M29.746 16.3048L37.6796 8.55169C38.3506 7.89594 38.3506 6.83253 37.6796 6.17669C37.0086 5.52086 35.9204 5.52086 35.2493 6.17669L27.3158 13.9299C26.6447 14.5856 26.6447 15.6491 27.3158 16.3049C27.9866 16.9606 29.0749 16.9607 29.746 16.3048Z" fill="white"/>
<path d="M42.2815 19.4087H31.0619C30.1128 19.4087 29.3434 20.1606 29.3434 21.088C29.3434 22.0155 30.1128 22.7674 31.0619 22.7674H42.2815C43.2305 22.7674 43.9999 22.0155 43.9999 21.088C44 20.1606 43.2306 19.4087 42.2815 19.4087Z" fill="white"/>
<path d="M22.4215 14.3235C23.3705 14.3235 24.1399 13.5716 24.1399 12.6441V1.67935C24.14 0.751914 23.3706 0 22.4215 0C21.4724 0 20.7031 0.751914 20.7031 1.67935V12.6442C20.7031 13.5716 21.4725 14.3235 22.4215 14.3235Z" fill="white"/>
</g>
<defs>
<clipPath id="clip0_47_37">
<rect width="44" height="43" fill="white"/>
</clipPath>
</defs>
</svg>
